<svg xmlns="http://www.w3.org/2000/svg" viewBox="0 0 600 600" role="img" aria-labelledby="title desc">
  <title id="title">Student profile illustration</title>
  <desc id="desc">A simple student profile image for the data communication assignment.</desc>
  <rect width="600" height="600" fill="#e6efec"/>
  <circle cx="300" cy="218" r="92" fill="#0f766e"/>
  <path d="M126 538c18-105 85-176 174-176s156 71 174 176" fill="#2f6690"/>
  <path d="M222 224c33 38 116 38 156 0v46c0 42-35 77-78 77s-78-35-78-77z" fill="#f3d2b8"/>
  <circle cx="264" cy="247" r="9" fill="#172026"/>
  <circle cx="336" cy="247" r="9" fill="#172026"/>
  <path d="M268 292c21 17 43 17 64 0" fill="none" stroke="#172026" stroke-width="10" stroke-linecap="round"/>
  <path d="M190 207c28-77 85-116 153-98 40 10 69 36 84 78-62-28-128-15-237 20z" fill="#172026"/>
  <rect x="196" y="424" width="208" height="68" rx="12" fill="#ffffff" opacity=".9"/>
  <text x="300" y="468" text-anchor="middle" font-family="Inter, Arial, sans-serif" font-size="26" font-weight="800" fill="#0c4a45">Your Photo</text>
</svg>
